<svg width="500" height="500" viewBox="0 0 500 500" fill="none" xmlns="http://www.w3.org/2000/svg">
<path d="M203.376 0.42843C84.7607 26.5626 0.310822 128.824 0 246.718V246.753C0.00100762 386.406 117.203 499.999 261.296 500C366.191 500.001 456.833 439.924 498.349 353.264C500.334 349.117 500.537 344.376 498.915 340.084C497.293 335.792 493.978 332.3 489.7 330.376C485.423 328.452 480.534 328.252 476.105 329.82C471.677 331.388 468.073 334.597 466.084 338.74C430.24 413.561 352.191 465.517 261.296 465.516C136.441 465.515 35.5863 367.812 35.5601 246.809V246.775V246.757C35.8517 144.753 108.629 56.6698 211.261 34.0569C213.539 33.5549 215.694 32.6226 217.601 31.3132C219.507 30.0039 221.129 28.3431 222.373 26.4259C223.617 24.5087 224.459 22.3727 224.851 20.1399C225.243 17.9071 225.177 15.6213 224.657 13.4133C223.611 8.95654 220.782 5.0849 216.791 2.6499C212.8 0.214888 207.974 -0.584241 203.376 0.42843ZM268.396 60.4799C266.061 60.3952 263.732 60.7573 261.541 61.5456C259.35 62.3339 257.341 63.533 255.629 65.0742C253.917 66.6154 252.535 68.4686 251.562 70.5278C250.589 72.587 250.044 74.8119 249.959 77.0752C249.872 79.3384 250.245 81.5962 251.059 83.7194C251.872 85.8426 253.109 87.7897 254.7 89.4492C256.29 91.1088 258.202 92.4484 260.327 93.3913C262.451 94.3342 264.747 94.862 267.082 94.9445C308.155 96.4131 344.951 113.024 371.958 139.085L329.689 170.87C311.365 155.322 287.432 145.853 261.296 145.853C205.801 145.853 160.123 188.447 157.323 241.585C157.225 243.299 157.177 245.021 157.177 246.755C157.177 264.442 161.931 281.101 170.26 295.591L90.3328 355.928C88.489 357.319 86.9463 359.049 85.7926 361.018C84.6389 362.987 83.897 365.158 83.6092 367.405C83.3215 369.653 83.4936 371.933 84.1156 374.116C84.7376 376.299 85.7974 378.342 87.2344 380.128C90.1338 383.73 94.3903 386.07 99.0685 386.632C103.747 387.194 108.464 385.933 112.183 383.126L192.6 322.409C210.964 338.098 235.018 347.654 261.288 347.654C318.573 347.654 365.379 302.271 365.379 246.75C365.379 228.945 360.532 212.205 352.1 197.648L394.153 165.996C409.307 189.404 418.074 217.074 418.082 246.75C418.082 255.943 417.188 264.957 415.551 273.782C415.138 276.011 415.182 278.298 415.681 280.511C416.18 282.724 417.124 284.82 418.459 286.679C419.794 288.538 421.495 290.123 423.463 291.345C425.431 292.567 427.628 293.401 429.928 293.799C434.568 294.603 439.348 293.589 443.217 290.98C447.086 288.371 449.728 284.38 450.562 279.884C452.544 269.177 453.641 258.097 453.641 246.75C453.635 203.733 438.437 164.004 412.962 132.349C412.637 131.826 412.284 131.32 411.903 130.834C411.649 130.573 411.387 130.32 411.117 130.076C377.282 89.3459 326.164 62.5494 268.386 60.4817L268.396 60.4799ZM193.53 73.8439C191.198 73.8587 188.893 74.3177 186.744 75.1948C115.516 104.213 69.0629 171.855 68.923 246.739V246.756C68.923 271.568 73.9892 295.294 83.0842 316.96C84.8587 321.194 88.2958 324.572 92.6397 326.351C96.9836 328.13 101.879 328.164 106.248 326.445C108.412 325.592 110.382 324.334 112.044 322.743C113.706 321.152 115.029 319.259 115.936 317.172C116.843 315.085 117.317 312.846 117.331 310.581C117.344 308.317 116.898 306.072 116.016 303.975C108.6 286.31 104.487 267.061 104.483 246.794V246.777V246.76C104.629 185.647 142.401 130.663 200.532 106.981C204.877 105.207 208.318 101.834 210.098 97.6032C211.878 93.3719 211.852 88.6287 210.025 84.4162C208.664 81.27 206.369 78.5862 203.433 76.7047C200.497 74.8232 197.05 73.8256 193.53 73.8439ZM261.296 180.337C299.359 180.337 329.807 209.866 329.807 246.756C329.807 283.646 299.359 313.195 261.296 313.195C240.245 313.195 221.524 304.15 208.986 289.832C208.743 289.476 208.487 289.129 208.218 288.792C208.008 288.589 207.793 288.391 207.572 288.199C198.286 276.869 192.744 262.487 192.744 246.777C192.744 245.623 192.78 244.494 192.841 243.355C194.667 208.082 224.421 180.356 261.294 180.356L261.296 180.337ZM401.006 327.148C396.357 327.921 392.216 330.451 389.492 334.182C361.095 373.219 314.418 398.739 261.296 398.739C226.578 398.739 194.684 387.837 168.718 369.369C164.918 366.666 160.166 365.536 155.506 366.227C150.846 366.918 146.66 369.374 143.868 373.055C141.081 376.741 139.919 381.349 140.636 385.865C141.354 390.381 143.893 394.437 147.694 397.14C179.497 419.758 218.859 433.201 261.298 433.201C326.197 433.202 383.757 401.909 418.562 354.064C419.909 352.213 420.866 350.123 421.38 347.914C421.893 345.705 421.952 343.419 421.553 341.187C421.154 338.956 420.306 336.822 419.056 334.909C417.806 332.995 416.18 331.339 414.269 330.035C410.418 327.409 405.646 326.372 401.006 327.148Z" fill="#FF6F42"/>
</svg>
