<svg width="392" height="339" viewBox="0 0 392 339" fill="none" xmlns="http://www.w3.org/2000/svg">
<path d="M98.9155 0.236263C-24.0019 19.532 -114.428 115.366 -118.852 231.047L-118.853 231.081C-123.715 368.132 -7.11565 485.883 141.098 493.6C248.992 499.218 344.319 445.114 390.04 362.292C392.225 358.329 392.6 353.687 391.081 349.388C389.562 345.089 386.273 341.484 381.94 339.368C377.608 337.25 372.586 336.792 367.976 338.094C363.366 339.396 359.547 342.352 357.358 346.311C317.883 417.819 235.793 464.627 142.298 459.759C13.8728 453.073 -86.4645 351.79 -82.2782 233.04L-82.2764 232.989C-78.4249 132.902 -0.49926 50.3563 105.855 33.6603C108.216 33.2897 110.465 32.4901 112.472 31.3072C114.479 30.1244 116.205 28.5814 117.551 26.7665C118.897 24.9517 119.838 22.9006 120.319 20.7304C120.8 18.5602 120.811 16.3134 120.353 14.1187C119.433 9.68898 116.657 5.73798 112.637 3.13465C108.616 0.53132 103.681 -0.511299 98.9155 0.236263ZM163.705 62.6503C161.306 62.4422 158.897 62.6728 156.616 63.3291C154.335 63.9855 152.227 65.0546 150.412 66.4754C148.597 67.8962 147.111 69.6409 146.039 71.6096C144.966 73.5783 144.329 75.7326 144.162 77.9492C143.993 80.1656 144.299 82.4013 145.062 84.5285C145.825 86.6557 147.03 88.6327 148.607 90.3465C150.185 92.0602 152.106 93.4773 154.258 94.5164C156.411 95.5555 158.754 96.1964 161.153 96.4024C203.349 100.043 240.619 118.314 267.491 145.336L222.907 174.265C204.6 158.026 180.313 147.451 153.428 146.052C96.3463 143.08 47.8795 182.435 43.1485 234.434C42.9889 236.11 42.8789 237.798 42.8185 239.499C42.2027 256.856 46.513 273.46 54.5749 288.126L-29.7384 343.058C-31.6834 344.325 -33.3305 345.94 -34.5857 347.811C-35.8409 349.682 -36.6797 351.772 -37.0539 353.962C-37.4281 356.152 -37.3305 358.399 -36.7667 360.575C-36.2029 362.751 -35.1839 364.812 -33.768 366.641C-30.9112 370.332 -26.6144 372.856 -21.822 373.658C-17.0296 374.46 -12.1336 373.475 -8.21008 370.92L76.621 315.64C94.9634 332.02 119.372 342.686 146.394 344.093C205.318 347.16 255.042 305.129 256.975 250.642C257.595 233.169 253.193 216.482 245.026 201.745L289.384 172.934C304.156 196.717 312.21 224.341 311.185 253.464C310.865 262.486 309.632 271.285 307.641 279.857C307.138 282.023 307.104 284.269 307.54 286.468C307.976 288.666 308.874 290.774 310.183 292.669C311.492 294.565 313.185 296.213 315.167 297.517C317.149 298.821 319.38 299.757 321.733 300.271C326.477 301.309 331.428 300.57 335.499 298.217C339.569 295.863 342.426 292.088 343.441 287.72C345.852 277.319 347.367 266.504 347.762 255.368C349.253 213.153 335.004 173.351 309.902 140.921C309.586 140.391 309.24 139.875 308.866 139.377C308.614 139.108 308.353 138.846 308.083 138.592C274.699 96.8089 223.052 67.7746 163.694 62.6516L163.705 62.6503ZM86.2319 71.7565C83.8331 71.6462 81.4453 71.9732 79.2044 72.7189C4.9297 97.3822 -45.2075 161.277 -47.9587 234.758L-47.9593 234.775C-48.8232 259.124 -44.4382 282.679 -35.8375 304.428C-34.1598 308.679 -30.742 312.178 -26.3358 314.156C-21.9295 316.135 -16.8957 316.43 -12.3412 314.978C-10.0856 314.256 -8.01604 313.127 -6.25089 311.654C-4.48575 310.182 -3.0595 308.395 -2.05382 306.396C-1.04813 304.396 -0.482674 302.224 -0.389664 300.003C-0.296654 297.781 -0.677986 295.554 -1.51182 293.449C-8.52457 275.716 -12.0853 256.605 -11.3836 236.716L-11.3824 236.682C-9.10459 176.716 31.6626 124.779 92.2803 104.651C96.8116 103.143 100.468 100.017 102.447 95.9602C104.425 91.9031 104.563 87.2469 102.831 83.0151C101.54 79.8546 99.2734 77.098 96.3185 75.0943C93.3636 73.0907 89.8532 71.9271 86.2319 71.7565ZM152.228 179.893C191.379 181.932 221.671 212.541 220.386 248.744C219.102 284.947 186.753 312.315 147.602 310.277C125.949 309.149 107.008 299.27 94.609 284.548C94.372 284.186 94.1209 283.831 93.8559 283.486C93.6469 283.276 93.4322 283.07 93.2122 282.869C84.0547 271.253 78.8553 256.842 79.4024 241.425C79.4425 240.293 79.5184 239.186 79.6215 238.072C82.7279 203.555 114.297 177.938 152.225 179.913L152.228 179.893ZM290.821 331.45C286.013 331.959 281.665 334.221 278.734 337.737C248.165 374.525 199.265 397.071 144.623 394.226C108.912 392.367 76.4865 379.96 50.4207 360.447C46.6058 357.59 41.757 356.227 36.9398 356.655C32.1227 357.084 27.7314 359.27 24.731 362.733C21.7364 366.201 20.3805 370.661 20.9613 375.131C21.5422 379.602 24.0123 383.718 27.8286 386.574C59.7537 410.474 99.7725 425.774 143.426 428.047C210.181 431.522 270.476 403.895 307.943 358.804C309.393 357.06 310.45 355.061 311.055 352.92C311.66 350.779 311.8 348.539 311.468 346.328C311.135 344.117 310.337 341.978 309.118 340.033C307.899 338.088 306.283 336.376 304.364 334.994C300.494 332.21 295.621 330.937 290.821 331.45Z" fill="#4D4D4D" fill-opacity="0.34"/>
</svg>
